External Loads File
version=1
nRows=92
nColumns=13
Range=5.000000e-03-10 seconds
endheader
time 	forceRightX 	forceRightY 	forceRightZ 	pointRightX 	pointRightY 	pointRightZ 	forceLeftX 	forceLeftY 	forceLeftZ 	pointLeftX 	pointLeftY 	pointLeftZ 		
2.505000 16.709812 840.381281 -0.000000 0.388765 0.336440 -0.098637 89.679361 -76.645112 -0.000000 0.094281 0.293665 -0.334066
2.510000 25.678735 833.650540 -0.000000 0.389400 0.329248 -0.098759 96.985333 -69.424889 -0.000000 0.094272 0.300512 -0.334172
2.515000 33.133915 826.280223 -0.000000 0.389791 0.322040 -0.098795 102.165541 -64.201193 -0.000000 0.094709 0.307282 -0.334286
2.520000 38.928140 818.887943 -0.000000 0.390052 0.314821 -0.098666 105.241163 -60.900046 -0.000000 0.095433 0.313969 -0.334378
2.525000 43.592523 812.257749 -0.000000 0.389818 0.307515 -0.098757 106.319706 -59.459507 -0.000000 0.096461 0.320719 -0.334504
2.530000 46.770035 807.376828 -0.000000 0.389524 0.300268 -0.098342 105.605323 -59.633451 -0.000000 0.097846 0.327564 -0.334591
2.535000 47.820884 805.313407 -0.000000 0.388864 0.293095 -0.097424 103.308503 -61.025916 -0.000000 0.099555 0.334243 -0.334759
2.540000 48.053054 806.947394 -0.000000 0.387804 0.285763 -0.098725 99.527708 -63.389589 -0.000000 0.101597 0.340922 -0.334956
2.545000 47.550445 813.058291 -0.000000 0.386474 0.278515 -0.098584 94.542059 -66.268959 -0.000000 0.103840 0.347827 -0.335015
2.550000 46.099273 824.176185 -0.000000 0.384818 0.271088 -0.098443 88.738436 -69.183206 -0.000000 0.106471 0.354353 -0.335154
2.555000 44.161279 840.431724 -0.000000 0.382888 0.263812 -0.098220 82.459353 -71.765215 -0.000000 0.109371 0.360721 -0.335203
2.560000 43.781186 861.542658 -0.000000 0.380546 0.256587 -0.097936 75.845929 -73.846359 -0.000000 0.112536 0.367208 -0.335366
2.565000 44.765675 887.169122 -0.000000 0.377850 0.249525 -0.097788 69.155003 -75.120409 -0.000000 0.116007 0.373594 -0.335428
2.570000 47.020912 916.948444 -0.000000 0.374800 0.242601 -0.097602 62.605318 -75.444040 -0.000000 0.119660 0.379723 -0.335667
2.575000 51.985148 950.501664 -0.000000 0.371442 0.235661 -0.097430 56.286268 -74.913468 -0.000000 0.123610 0.385842 -0.335725
2.580000 58.781004 987.600991 -0.000000 0.367931 0.228987 -0.097395 50.438550 -73.556781 -0.000000 0.127921 0.391926 -0.335940
2.585000 68.011408 1027.901049 -0.000000 0.363915 0.222364 -0.097259 45.084283 -71.524228 -0.000000 0.132433 0.397808 -0.336140
2.590000 79.040970 1071.059026 -0.000000 0.359618 0.216029 -0.097026 40.224750 -68.868716 -0.000000 0.137232 0.403560 -0.336306
2.595000 92.057082 1116.630180 -0.000000 0.354988 0.209783 -0.096848 35.751468 -65.610043 -0.000000 0.142268 0.409054 -0.336576
2.600000 107.218338 1164.156377 -0.000000 0.350122 0.203941 -0.096713 31.600536 -61.671399 -0.000000 0.147577 0.414734 -0.336781
2.605000 123.814628 1213.254141 -0.000000 0.344998 0.198258 -0.096702 27.808617 -56.854395 -0.000000 0.153076 0.420206 -0.336859
2.610000 142.030722 1263.366704 -0.000000 0.339696 0.192763 -0.096688 24.373309 -50.861632 -0.000000 0.158775 0.425704 -0.336928
2.615000 160.923630 1313.828963 -0.000000 0.334216 0.187563 -0.096602 21.350930 -43.249240 -0.000000 0.164693 0.430986 -0.337036
2.620000 180.275376 1363.620701 -0.000000 0.328452 0.182664 -0.096777 18.822746 -33.573669 -0.000000 0.170719 0.435975 -0.337098
2.625000 199.839209 1411.472339 -0.000000 0.322570 0.178100 -0.096713 16.956652 -21.529717 -0.000000 0.176821 0.440952 -0.337129
2.630000 220.179741 1455.757291 -0.000000 0.316486 0.173698 -0.096541 15.951094 -7.063385 -0.000000 0.183122 0.445668 -0.337130
2.635000 240.237518 1494.798895 -0.000000 0.310374 0.169587 -0.096461 15.970166 9.647225 -0.000000 0.189554 0.450256 -0.337212
2.640000 259.162201 1526.614403 -0.000000 0.304159 0.165949 -0.096427 16.995623 28.214454 -0.000000 0.195938 0.454754 -0.337246
2.645000 279.172020 1548.471073 -0.000000 0.297936 0.162401 -0.096351 18.889023 48.031944 -0.000000 0.202883 0.458784 -0.338354
2.650000 294.189039 1559.028988 -0.000000 0.291695 0.159362 -0.096257 21.136654 68.397685 -0.000000 0.209126 0.462711 -0.337723
2.655000 309.133360 1555.051304 -0.000000 0.285477 0.156516 -0.096121 23.502452 88.317106 -0.000000 0.215833 0.466283 -0.337893
2.660000 320.678001 1535.084762 -0.000000 0.279253 0.154113 -0.095986 25.460729 106.885478 -0.000000 0.222389 0.469662 -0.338056
2.665000 329.216570 1497.490748 -0.000000 0.273042 0.151964 -0.095806 26.684380 123.348919 -0.000000 0.228991 0.472819 -0.338020
2.670000 333.283235 1441.762790 -0.000000 0.266920 0.150245 -0.095565 26.783356 137.346569 -0.000000 0.235554 0.475685 -0.338293
2.675000 332.658870 1368.045403 -0.000000 0.260870 0.148794 -0.095361 25.557120 148.853857 -0.000000 0.242067 0.478313 -0.338487
2.680000 327.069135 1277.491898 -0.000000 0.254927 0.147714 -0.095127 22.929781 158.091034 -0.000000 0.248551 0.480581 -0.338575
2.685000 316.902432 1172.065765 -0.000000 0.249000 0.147046 -0.094832 19.016681 165.435514 -0.000000 0.254972 0.482574 -0.338733
2.690000 302.498790 1054.581165 -0.000000 0.243120 0.146685 -0.094572 14.008524 171.412653 -0.000000 0.261354 0.484200 -0.338906
2.695000 284.661977 928.358427 -0.000000 0.237289 0.146651 -0.094352 8.206480 176.629748 -0.000000 0.267800 0.485671 -0.338950
2.700000 263.560920 797.298845 -0.000000 0.231477 0.147110 -0.094077 1.805784 181.685471 -0.000000 0.274023 0.486579 -0.339322
2.705000 240.682947 665.008267 -0.000000 0.225692 0.147896 -0.093923 -4.743674 187.090550 -0.000000 0.280257 0.487087 -0.339591
2.710000 216.532894 535.265147 -0.000000 0.219912 0.149155 -0.093835 -11.261076 193.285588 -0.000000 0.286188 0.487315 -0.339646
2.715000 192.915641 410.972072 -0.000000 0.214120 0.150756 -0.093716 -17.251623 200.662928 -0.000000 0.292182 0.487082 -0.339774
2.720000 170.937689 294.636677 -0.000000 0.208154 0.152904 -0.093778 -22.405509 209.522170 -0.000000 0.298216 0.486394 -0.340203
2.725000 151.127460 188.347908 -0.000000 0.201993 0.155608 -0.094023 -26.873940 219.973379 -0.000000 0.303858 0.485368 -0.340365
2.730000 134.564609 93.080572 -0.000000 0.195571 0.158913 -0.094326 -30.464503 232.049312 -0.000000 0.309382 0.483983 -0.340491
2.735000 121.667238 9.407077 -0.000000 0.188865 0.162492 -0.094666 -33.395175 245.706897 -0.000000 0.314663 0.482125 -0.340451
2.740000 112.555892 -62.680868 -0.000000 0.181856 0.166616 -0.095045 -35.788882 260.937394 -0.000000 0.319681 0.479831 -0.340432
2.745000 106.854994 -123.360472 -0.000000 0.174961 0.171210 -0.094934 -37.934536 277.737693 -0.000000 0.324651 0.476901 -0.340561
2.750000 103.989940 -172.693058 -0.000000 0.168368 0.175796 -0.095074 -40.447384 296.085206 -0.000000 0.329491 0.473471 -0.340830
2.755000 102.841797 -210.883566 -0.000000 0.161848 0.180677 -0.095545 -43.237595 316.077624 -0.000000 0.334161 0.469570 -0.341319
2.760000 102.678680 -237.960179 -0.000000 0.155876 0.185550 -0.095665 -46.807501 337.722821 -0.000000 0.338729 0.465217 -0.341852
2.765000 102.820070 -254.454853 -0.000000 0.150323 0.190458 -0.095789 -51.263487 360.984202 -0.000000 0.342995 0.460481 -0.342070
2.770000 102.909248 -261.519793 -0.000000 0.145075 0.195464 -0.095952 -56.647632 385.640025 -0.000000 0.346893 0.455533 -0.342054
2.775000 102.488827 -261.125643 -0.000000 0.140115 0.200612 -0.096041 -62.275041 411.417949 -0.000000 0.350860 0.450110 -0.342372
2.780000 101.781371 -255.515850 -0.000000 0.135323 0.206163 -0.096043 -68.053158 437.950090 -0.000000 0.354626 0.444403 -0.342760
2.785000 100.693492 -247.189585 -0.000000 0.130761 0.212123 -0.096057 -73.292394 464.969770 -0.000000 0.358345 0.438069 -0.343057
2.790000 99.375824 -238.256727 -0.000000 0.126439 0.218459 -0.096017 -77.944770 492.015267 -0.000000 0.362002 0.431358 -0.342961
2.795000 97.873541 -230.239507 -0.000000 0.122405 0.225071 -0.096008 -82.373909 518.484315 -0.000000 0.365588 0.424627 -0.342576
2.800000 95.724509 -224.071698 -0.000000 0.118660 0.231854 -0.096042 -86.471234 543.972377 -0.000000 0.368918 0.417521 -0.342217
2.805000 92.482779 -219.932141 -0.000000 0.115635 0.238911 -0.096013 -90.431672 568.330942 -0.000000 0.371897 0.409885 -0.342444
2.810000 87.671179 -217.528779 -0.000000 0.112673 0.245997 -0.095834 -94.185900 591.782198 -0.000000 0.374858 0.402088 -0.342545
2.815000 81.258282 -216.258450 -0.000000 0.110105 0.253244 -0.095849 -98.191835 614.686777 -0.000000 0.377637 0.394142 -0.342458
2.820000 73.256121 -215.631906 -0.000000 0.107982 0.260607 -0.095807 -102.254494 637.598358 -0.000000 0.380355 0.385944 -0.342416
2.825000 63.629213 -215.329412 -0.000000 0.105341 0.268254 -0.096750 -105.429145 661.186581 -0.000000 0.382739 0.377525 -0.342423
2.830000 53.020391 -214.898084 -0.000000 0.103909 0.275937 -0.096822 -108.543665 685.773035 -0.000000 0.384834 0.368415 -0.342386
2.835000 42.191110 -213.946090 -0.000000 0.102938 0.283907 -0.096876 -112.703750 711.504653 -0.000000 0.386676 0.359782 -0.342287
2.840000 31.463775 -212.240783 -0.000000 0.102654 0.291779 -0.096798 -117.374308 738.620835 -0.000000 0.388166 0.351021 -0.342299
2.845000 21.003661 -209.582120 -0.000000 0.102395 0.299782 -0.096906 -121.249610 767.375801 -0.000000 0.389163 0.342133 -0.342421
2.850000 11.237919 -205.784368 -0.000000 0.102326 0.307922 -0.097107 -123.988899 797.827376 -0.000000 0.390055 0.333166 -0.342283
2.855000 2.744784 -200.792225 -0.000000 0.102877 0.315987 -0.097165 -126.305223 829.853597 -0.000000 0.390575 0.324166 -0.342289
2.860000 -4.532918 -194.706427 -0.000000 0.103842 0.324314 -0.097182 -127.005471 863.656592 -0.000000 0.390586 0.315142 -0.341876
2.865000 -10.163251 -187.703304 -0.000000 0.105233 0.332425 -0.097157 -127.638227 899.114317 -0.000000 0.390405 0.306146 -0.341544
2.870000 -14.397076 -179.979099 -0.000000 0.106975 0.340521 -0.097131 -127.438608 936.558037 -0.000000 0.389553 0.297131 -0.341390
2.875000 -17.441192 -171.718208 -0.000000 0.109166 0.348740 -0.097120 -126.133958 976.309770 -0.000000 0.388271 0.288163 -0.341184
2.880000 -19.339086 -163.130715 -0.000000 0.111710 0.356800 -0.097141 -124.704267 1018.539210 -0.000000 0.386620 0.279239 -0.340980
2.885000 -20.412347 -154.438359 -0.000000 0.114838 0.364761 -0.097165 -122.790894 1063.532089 -0.000000 0.384449 0.270466 -0.340828
2.890000 -20.983767 -145.924369 -0.000000 0.118175 0.372724 -0.097261 -119.999909 1111.445158 -0.000000 0.381910 0.261766 -0.340669
2.895000 -21.351864 -137.919354 -0.000000 0.121963 0.380560 -0.097326 -116.294276 1162.242106 -0.000000 0.378950 0.253210 -0.340520
2.900000 -22.019421 -130.692377 -0.000000 0.126191 0.388427 -0.097526 -110.013973 1215.864606 -0.000000 0.375525 0.244678 -0.340396
2.905000 -23.125486 -124.472338 -0.000000 0.130815 0.396188 -0.097662 -102.417154 1271.707518 -0.000000 0.371835 0.236425 -0.340242
2.910000 -25.012537 -119.324764 -0.000000 0.135826 0.403718 -0.097854 -92.500221 1329.027363 -0.000000 0.367634 0.228428 -0.340140
2.915000 -27.894809 -115.193776 -0.000000 0.141179 0.411067 -0.098115 -79.513772 1386.669068 -0.000000 0.363059 0.220672 -0.339989
2.920000 -31.792647 -111.943182 -0.000000 0.146894 0.418208 -0.098304 -63.821354 1443.154832 -0.000000 0.358166 0.213414 -0.339808
2.925000 -36.819640 -109.320468 -0.000000 0.152939 0.425137 -0.098619 -43.366254 1497.010305 -0.000000 0.352878 0.206272 -0.339672
2.930000 -42.806064 -107.090706 -0.000000 0.159325 0.431896 -0.098825 -18.437550 1546.518597 -0.000000 0.347244 0.199390 -0.339527
2.935000 -49.466841 -105.038058 -0.000000 0.165988 0.438403 -0.099015 10.078621 1589.672034 -0.000000 0.341333 0.192845 -0.339319
2.940000 -56.560034 -102.908131 -0.000000 0.172938 0.444587 -0.099271 42.827133 1624.025478 -0.000000 0.335055 0.186573 -0.339203
2.945000 -63.648756 -100.518932 -0.000000 0.180051 0.450494 -0.099500 77.846802 1646.972794 -0.000000 0.328596 0.180809 -0.339009
2.950000 -70.404336 -97.614148 -0.000000 0.187353 0.456013 -0.099726 114.670715 1656.123957 -0.000000 0.321936 0.175520 -0.338811
2.955000 -76.563955 -93.884895 -0.000000 0.194935 0.461255 -0.099924 153.537907 1649.448655 -0.000000 0.315104 0.170405 -0.338622
2.960000 -81.806291 -89.109455 -0.000000 0.203101 0.466171 -0.099352 193.018816 1625.588712 -0.000000 0.308243 0.165777 -0.338378
